<?xml version="1.0" encoding="utf-8"?>

<!DOCTYPE svg PUBLIC "-//W3C//DTD SVG 1.1//EN" "http://www.w3.org/Graphics/SVG/1.1/DTD/svg11.dtd">
<!-- Uploaded to: SVG Repo, www.svgrepo.com, Generator: SVG Repo Mixer Tools -->
<svg height="800px" width="800px" version="1.1" id="_x32_" xmlns="http://www.w3.org/2000/svg" xmlns:xlink="http://www.w3.org/1999/xlink" 
	 viewBox="0 0 512 512"  xml:space="preserve">
<style type="text/css">
	.st0{fill:#000000;}
</style>
<g>
	<path class="st0" d="M224.658,54.926c-11.04-8.01-26.496-5.546-34.499,5.494c-5.798,7.988-1.864,2.561-5.346,7.357
		c-11.944,16.466-30.349,11.262-37.156-8.872c-4.165-12.354-14.114-33.72-29.6-44.96C85.339-9.781,39.585-2.498,15.857,30.212
		C-7.87,62.914-0.586,108.677,32.124,132.403c15.486,11.241,38.886,14.054,51.924,14.188c21.255,0.223,31.916,16.102,19.97,32.568
		c-3.482,4.796,0.453-0.631-5.338,7.358c-8.01,11.04-5.553,26.504,5.494,34.507c11.032,8.01,26.489,5.552,34.507-5.494
		l91.471-126.096C238.161,78.394,235.697,62.937,224.658,54.926z"/>
	<polygon class="st0" points="158.213,222.367 158.22,222.36 158.213,222.36 	"/>
	<path class="st0" d="M451.082,365.643c-0.014,0-2.309-1.67-7.193-5.211c-4.878-3.542-12.332-8.946-22.629-16.422
		c-27.736-20.238-51.344-25.902-70.788-29.488c-9.733-1.826-18.39-3.252-26.496-5.71c-8.129-2.464-15.79-5.842-24.18-11.908
		c-18.938-13.734-50.98-36.986-78.301-56.808c-13.653-9.904-26.125-18.954-35.182-25.524c-9.065-6.57-14.684-10.653-14.7-10.668
		L158.22,222.36c0.067,0.059,90.321,65.531,128.182,93c10.557,7.683,20.98,12.286,30.988,15.293
		c15.071,4.484,28.806,5.702,42.91,9.272c14.143,3.563,29.043,9.154,47.558,22.546c20.594,14.944,29.822,21.634,29.822,21.634
		L451.082,365.643z"/>
	<polygon class="st0" points="229.327,124.356 229.327,124.356 229.319,124.348 	"/>
	<path class="st0" d="M244.027,135.009c27.172,19.718,85.079,61.716,113.483,82.324c8.374,6.096,13.972,12.324,18.843,19.288
		c7.29,10.379,12.695,22.851,21.529,37.009c8.819,14.113,21.262,29.466,42.116,44.551c10.297,7.462,17.759,12.866,22.636,16.414
		c4.884,3.534,7.179,5.212,7.186,5.212l13.4-18.456c0-0.007-9.236-6.704-29.822-21.64c-12.331-8.946-20.839-17.491-27.462-25.806
		c-9.925-12.457-15.656-24.654-22.888-37.476c-7.18-12.739-16.244-26.072-32.146-37.55c-37.878-27.484-128.19-92.993-128.19-92.993
		l-13.386,18.471C229.394,124.4,234.999,128.461,244.027,135.009z"/>
	<path class="st0" d="M472.389,399.748c-0.208,0-37.692,53.735-37.692,74.56c0,20.816,16.875,37.692,37.692,37.692
		c20.817,0,37.699-16.875,37.699-37.692C510.088,453.484,472.604,399.748,472.389,399.748z"/>
</g>
</svg>